<svg width="300" height="300" viewBox="0 0 300 300" fill="none" xmlns="http://www.w3.org/2000/svg">
<rect width="300" height="300" rx="50" fill="black"/>
<path d="M251.05 188C257.05 188 260.05 197.975 260.05 217.925C260.05 238.025 223.375 248.075 150.025 248.075C76.675 248.075 40 238.025 40 217.925C40 197.975 43 188 49 188C55 188 58 194.975 58 208.925C58 223.025 88.675 230.075 150.025 230.075C211.375 230.075 242.05 223.025 242.05 208.925C242.05 194.975 245.05 188 251.05 188Z" fill="white"/>
<path d="M260 96.5C260 101.75 254.6 104.375 243.8 104.375C232.85 104.375 227.375 109.775 227.375 120.575C227.375 131.525 224.75 137 219.5 137C214.25 137 211.625 131.525 211.625 120.575C211.625 109.775 206.225 104.375 195.425 104.375C184.475 104.375 179 101.75 179 96.5C179 91.25 184.475 88.625 195.425 88.625C206.225 88.625 211.625 83.15 211.625 72.2C211.625 61.4 214.25 56 219.5 56C224.75 56 227.375 61.4 227.375 72.2C227.375 83.15 232.85 88.625 243.8 88.625C254.6 88.625 260 91.25 260 96.5Z" fill="white"/>
<path d="M81.2327 65.7375C105.383 79.6875 117.458 90.0375 117.458 96.7875C117.458 99.0375 115.733 101.963 112.283 105.563C108.833 109.013 104.333 112.688 98.7827 116.588C93.3827 120.488 87.5327 124.313 81.2327 128.063C74.9327 131.663 68.8577 134.738 63.0077 137.288C57.3077 139.838 52.3577 141.563 48.1577 142.463C44.1077 143.213 41.5577 142.763 40.5077 141.113C37.6577 136.013 46.8077 127.313 67.9577 115.013C89.1077 102.863 89.1077 90.6375 67.9577 78.3375C57.3077 72.1875 49.7327 66.8625 45.2327 62.3625C40.7327 57.7125 39.1577 54.4125 40.5077 52.4625C41.8577 50.5125 45.9077 50.5125 52.6577 52.4625C59.5577 54.2625 69.0827 58.6875 81.2327 65.7375Z" fill="white"/>
</svg>
